<svg width="32" height="32" viewBox="0 0 32 32" fill="none" xmlns="http://www.w3.org/2000/svg">
<path d="M26.6667 4H5.33333C2.4 4 0 6.4 0 9.33333V10.6667C0 11.4667 0.533333 12 1.33333 12H30.6667C31.4667 12 32 11.4667 32 10.6667V9.33333C32 6.4 29.6 4 26.6667 4Z" fill="#FDFDFF"/>
<path d="M30.6667 14.6667H1.33333C0.533333 14.6667 0 15.2001 0 16.0001V22.6667C0 25.6001 2.4 28.0001 5.33333 28.0001H26.6667C29.6 28.0001 32 25.6001 32 22.6667V16.0001C32 15.2001 31.4667 14.6667 30.6667 14.6667ZM14.6667 24.0001H6.66667C5.86667 24.0001 5.33333 23.4667 5.33333 22.6667C5.33333 21.8667 5.86667 21.3334 6.66667 21.3334H14.6667C15.4667 21.3334 16 21.8667 16 22.6667C16 23.4667 15.4667 24.0001 14.6667 24.0001ZM25.3333 20.0001H22.6667C21.8667 20.0001 21.3333 19.4667 21.3333 18.6667C21.3333 17.8667 21.8667 17.3334 22.6667 17.3334H25.3333C26.1333 17.3334 26.6667 17.8667 26.6667 18.6667C26.6667 19.4667 26.1333 20.0001 25.3333 20.0001Z" fill="#FDFDFF"/>
</svg>
