<svg width="32" height="32" viewBox="0 0 32 32" fill="none" xmlns="http://www.w3.org/2000/svg">
<path d="M26.6668 5.33333C26.6668 2.4 24.2668 0 21.3335 0H10.6668C7.7335 0 5.3335 2.4 5.3335 5.33333V26.6667C5.3335 29.6 7.7335 32 10.6668 32H21.3335C24.2668 32 26.6668 29.6 26.6668 26.6667V5.33333ZM17.3335 29.3333H14.6668C13.8668 29.3333 13.3335 28.8 13.3335 28C13.3335 27.2 13.8668 26.6667 14.6668 26.6667H17.3335C18.1335 26.6667 18.6668 27.2 18.6668 28C18.6668 28.8 18.1335 29.3333 17.3335 29.3333ZM24.0002 22.6667C24.0002 23.4667 23.4668 24 22.6668 24H9.3335C8.5335 24 8.00016 23.4667 8.00016 22.6667V6.66667C8.00016 5.86667 8.5335 5.33333 9.3335 5.33333H22.6668C23.4668 5.33333 24.0002 5.86667 24.0002 6.66667V22.6667Z" fill="#FDFDFF"/>
</svg>
