<svg width="32" height="32" viewBox="0 0 32 32" fill="none" xmlns="http://www.w3.org/2000/svg">
<path d="M2.6665 10.6666V16.0013H3.99984V24H2.6665V28H23.9998L27.9998 28.0013L29.3332 28V24H27.9998V16.0013H29.3332V10.6666L15.9998 2.66663L2.6665 10.6666ZM7.99984 24V16.0013H10.6665V24H7.99984ZM14.6665 24V16.0013H17.3332V24H14.6665ZM23.9998 24H21.3332V16.0013H23.9998V24ZM18.6665 10.6666C18.6664 11.0169 18.5973 11.3637 18.4632 11.6873C18.3291 12.0109 18.1325 12.3049 17.8848 12.5525C17.637 12.8001 17.3429 12.9965 17.0193 13.1305C16.6956 13.2645 16.3488 13.3334 15.9985 13.3333C15.6482 13.3332 15.3014 13.2641 14.9778 13.13C14.6542 12.9959 14.3602 12.7993 14.1126 12.5516C13.865 12.3038 13.6686 12.0097 13.5346 11.6861C13.4007 11.3624 13.3317 11.0156 13.3318 10.6653C13.332 9.95787 13.6132 9.2795 14.1136 8.7794C14.6139 8.2793 15.2924 7.99845 15.9998 7.99863C16.7073 7.9988 17.3856 8.27999 17.8857 8.78034C18.3858 9.28069 18.6667 9.9592 18.6665 10.6666Z" fill="#FDFDFF"/>
</svg>
