<svg width="32" height="32" viewBox="0 0 32 32" fill="none" xmlns="http://www.w3.org/2000/svg">
<path d="M17.3874 15.513H24.9594C25.9414 15.513 26.7404 14.714 26.7404 13.732V13.444C26.7404 11.635 25.6954 10.08 24.1884 9.30398C24.9414 8.53898 25.4094 7.49198 25.4094 6.33498C25.4094 3.99998 23.5094 2.09998 21.1734 2.09998C18.8384 2.09998 16.9384 3.99998 16.9384 6.33498C16.9384 7.49098 17.4064 8.53798 18.1584 9.30298C16.6504 10.079 15.6064 11.634 15.6064 13.443V13.731C15.6064 14.714 16.4054 15.513 17.3874 15.513ZM21.1734 3.89998C22.5164 3.89998 23.6094 4.99198 23.6094 6.33498C23.6094 7.67798 22.5164 8.77098 21.1734 8.77098C19.8304 8.77098 18.7384 7.67798 18.7384 6.33498C18.7384 4.99198 19.8304 3.89998 21.1734 3.89998ZM17.4064 13.443C17.4064 11.859 18.6944 10.571 20.2784 10.571H22.0674C23.6514 10.571 24.9394 11.859 24.9394 13.443V13.712L17.4064 13.732V13.443Z" fill="#FDFDFF"/>
<path d="M28.6762 19.873L28.5722 19.762C27.5532 18.687 25.9162 18.494 24.6762 19.301L22.0192 21.033C22.0502 20.858 22.0732 20.681 22.0732 20.498C22.0732 19.059 21.0502 17.799 19.6402 17.503L15.5602 16.647C13.8202 16.282 11.9842 16.646 10.5182 17.643L9.82621 18.114C9.75521 16.944 8.79021 16.01 7.60321 16.01H5.33521C3.76721 16.01 2.49121 17.286 2.49121 18.855V27.057C2.49121 28.625 3.76721 29.902 5.33521 29.902H7.60421C8.76121 29.902 9.70521 29.015 9.81821 27.887L15.3052 29.272C15.8302 29.406 16.3732 29.472 16.9152 29.472C17.4082 29.472 17.9022 29.416 18.3832 29.306L22.9872 28.249C24.1452 27.983 25.2112 27.407 26.0672 26.585L28.5702 24.181C29.7762 23.02 29.8222 21.086 28.6762 19.873ZM8.04121 27.663C8.04121 27.904 7.84521 28.1 7.60421 28.1H5.33521C4.75921 28.1 4.29121 27.632 4.29121 27.056V18.854C4.29121 18.278 4.76021 17.81 5.33521 17.81H7.60421C7.84521 17.81 8.04121 18.005 8.04121 18.247V27.663ZM27.3222 22.882L24.8202 25.285C24.1982 25.883 23.4242 26.301 22.5842 26.494L17.9802 27.551C17.2492 27.719 16.4772 27.71 15.7472 27.526L9.84021 26.034V20.28L11.5312 19.13C12.5952 18.405 13.9302 18.145 15.1902 18.407L19.2712 19.263C19.8512 19.385 20.2722 19.904 20.2722 20.496C20.2722 21.191 19.7082 21.757 19.0122 21.757H16.1982C15.7012 21.757 15.2982 22.16 15.2982 22.657C15.2982 23.154 15.7012 23.557 16.1982 23.557H20.5312C21.1252 23.557 21.7022 23.385 22.2022 23.06L25.6582 20.807C26.1702 20.474 26.8452 20.554 27.2602 20.994L27.3642 21.105C27.8392 21.607 27.8192 22.404 27.3222 22.882Z" fill="#FDFDFF"/>
</svg>
