<svg width="32" height="32" viewBox="0 0 32 32" fill="none" xmlns="http://www.w3.org/2000/svg">
<path d="M23.8428 10.0133V27.0358H2.47852V10.0133H23.8428Z" stroke="#FDFDFF"/>
<path d="M2.13478 27.3798H24.186V9.66957H2.13478V27.3798ZM24.3423 27.6922H1.97853C1.89223 27.6922 1.82227 27.6222 1.82227 27.536V9.51331C1.82227 9.42712 1.89223 9.35706 1.97853 9.35706H24.3423C24.4285 9.35706 24.4986 9.42712 24.4986 9.51331V27.536C24.4986 27.6222 24.4285 27.6922 24.3423 27.6922Z" fill="#1C3182"/>
<path d="M1.97852 10.6604H24.3423V7.63904H1.97852V10.6604Z" fill="#FDFDFF"/>
<path d="M2.13478 10.5041H24.186V7.7955H2.13478V10.5041ZM24.3423 10.8164H1.97853C1.89223 10.8164 1.82227 10.7466 1.82227 10.6604V7.63904C1.82227 7.55279 1.89223 7.48279 1.97853 7.48279H24.3423C24.4285 7.48279 24.4986 7.55279 24.4986 7.63904V10.6604C24.4986 10.7466 24.4285 10.8164 24.3423 10.8164Z" fill="#1C3182"/>
<path d="M9.3208 24.9957H12.1597V15.2827H9.3208V24.9957Z" fill="#FDFDFF"/>
<path d="M9.47707 24.8395H12.0034V15.4391H9.47707V24.8395ZM12.1596 25.152H9.3208C9.23455 25.152 9.16455 25.082 9.16455 24.9958V15.2829C9.16455 15.1967 9.23455 15.1266 9.3208 15.1266H12.1596C12.246 15.1266 12.3159 15.1966 12.3159 15.2829V24.9958C12.3159 25.082 12.246 25.152 12.1596 25.152Z" fill="#1C3182"/>
<path d="M13.9336 24.9958H16.7723V18.646H13.9336V24.9958Z" fill="#FDFDFF"/>
<path d="M14.0894 24.8395H16.6155V18.8024H14.0894V24.8395ZM16.772 25.152H13.9332C13.8469 25.152 13.7769 25.082 13.7769 24.9957V18.6461C13.7769 18.5597 13.8469 18.4897 13.9332 18.4897H16.772C16.8582 18.4897 16.9282 18.5597 16.9282 18.6461V24.9957C16.9282 25.082 16.8582 25.152 16.772 25.152Z" fill="#1C3182"/>
<path d="M4.7085 24.9957H7.54735V17.5809H4.7085V24.9957Z" fill="#FDFDFF"/>
<path d="M4.86476 24.8395H7.39106V17.7371H4.86476V24.8395ZM7.54716 25.152H4.70851C4.62231 25.152 4.55225 25.082 4.55225 24.9958V17.5808C4.55225 17.4946 4.62231 17.4246 4.70851 17.4246H7.54716C7.63356 17.4246 7.70362 17.4946 7.70362 17.5808V24.9958C7.70362 25.082 7.63356 25.152 7.54716 25.152Z" fill="#1C3182"/>
<path d="M5.59979 24.6782L5.57322 24.6709C5.39053 24.5622 5.21453 24.4441 5.05002 24.32C5.027 24.3026 5.02253 24.2699 5.03979 24.2471C5.0572 24.224 5.08988 24.2196 5.11269 24.2367C5.27414 24.3587 5.44715 24.4747 5.62637 24.5814C5.65115 24.5961 5.65926 24.6281 5.64453 24.6527C5.63481 24.669 5.61759 24.6782 5.59977 24.6782H5.59979Z" fill="#1C3182"/>
<path d="M6.53615 24.6631L6.50687 24.6541L5.07153 23.6742C5.0478 23.6581 5.04169 23.6256 5.05788 23.6018C5.07422 23.578 5.10676 23.5722 5.13044 23.5883L6.56556 24.5679C6.58929 24.5842 6.5954 24.6165 6.57921 24.6404C6.56919 24.6551 6.55283 24.6631 6.53615 24.6631Z" fill="#1C3182"/>
<path d="M7.1274 24.2341L7.09991 24.2262L5.07442 22.9645C5.04998 22.9491 5.04245 22.917 5.05768 22.8927C5.07294 22.8683 5.10512 22.8611 5.12957 22.876L7.15505 24.1377C7.17949 24.1529 7.18687 24.1851 7.17176 24.2095C7.16189 24.2253 7.14466 24.2341 7.12742 24.2341H7.1274Z" fill="#1C3182"/>
<path d="M7.15319 23.4777L7.1284 23.4713C6.42629 23.0931 5.73511 22.6857 5.07429 22.2609C5.05006 22.2453 5.04303 22.2131 5.0585 22.1889C5.07413 22.1646 5.10647 22.1576 5.1305 22.1733C5.7892 22.5968 6.47802 23.0026 7.1778 23.3795C7.20311 23.3932 7.21263 23.4248 7.19898 23.4502C7.18946 23.4677 7.17168 23.4777 7.15321 23.4777L7.15319 23.4777Z" fill="#1C3182"/>
<path d="M7.12606 22.6949L7.10035 22.688C6.41798 22.3029 5.73727 21.8991 5.07734 21.4884C5.0529 21.4731 5.04537 21.441 5.06064 21.4165C5.0759 21.3921 5.10804 21.3849 5.13248 21.3998C5.79112 21.8101 6.47063 22.213 7.15171 22.5973C7.17671 22.6115 7.18552 22.6433 7.17147 22.6685C7.16179 22.6854 7.14419 22.6948 7.12606 22.6948V22.6949Z" fill="#1C3182"/>
<path d="M7.11462 21.9077L7.08875 21.9008L5.04814 20.7296C5.0232 20.7152 5.01454 20.6833 5.02894 20.6586C5.0433 20.6334 5.07527 20.6249 5.10006 20.6393L7.14067 21.8104C7.16561 21.8248 7.17421 21.8566 7.15987 21.8815C7.15019 21.8983 7.13274 21.9077 7.11462 21.9077V21.9077Z" fill="#1C3182"/>
<path d="M7.12355 21.1786L7.0988 21.1722C6.40601 20.7974 5.71845 20.4006 5.05513 19.9928C5.0305 19.9777 5.02295 19.9454 5.03802 19.921C5.05315 19.8964 5.08549 19.8887 5.10951 19.904C5.77125 20.3108 6.45717 20.7067 7.14834 21.0807C7.17368 21.0943 7.18301 21.1259 7.16936 21.1513C7.16005 21.1687 7.14208 21.1786 7.12353 21.1786H7.12355Z" fill="#1C3182"/>
<path d="M7.06159 20.3246L7.03521 20.3174L5.09714 19.1791C5.0722 19.1645 5.0639 19.1326 5.07846 19.1079C5.09303 19.0828 5.12515 19.0749 5.14978 19.0893L7.08801 20.2277C7.11279 20.2422 7.12105 20.2741 7.1065 20.2989C7.09682 20.3156 7.0794 20.3247 7.06159 20.3247V20.3246Z" fill="#1C3182"/>
<path d="M7.05359 19.5607L7.02772 19.5539C6.38233 19.1839 5.73535 18.7986 5.10473 18.4086C5.08029 18.3936 5.07276 18.3614 5.08787 18.337C5.10294 18.3124 5.13506 18.305 5.15951 18.3201C5.78927 18.7093 6.43513 19.0942 7.0796 19.4635C7.10454 19.4777 7.1132 19.5094 7.09884 19.5347C7.08932 19.5514 7.07171 19.5607 7.05359 19.5607V19.5607Z" fill="#1C3182"/>
<path d="M7.1235 18.8547L7.09606 18.8468L5.79111 18.0374C5.76673 18.0222 5.75933 17.9901 5.77441 17.9658C5.78969 17.9412 5.82187 17.934 5.8461 17.9489L7.15099 18.7583C7.17543 18.7735 7.18296 18.8057 7.16769 18.8301C7.15802 18.8459 7.14097 18.8547 7.1235 18.8547V18.8547Z" fill="#1C3182"/>
<path d="M7.12139 18.1771L7.09303 18.1685L6.75838 17.9501C6.73434 17.9346 6.72768 17.9022 6.74331 17.8781C6.75915 17.8538 6.79163 17.8474 6.8155 17.8628L7.14996 18.0815C7.17404 18.097 7.18087 18.1294 7.16503 18.1535C7.15515 18.1688 7.13846 18.1771 7.12141 18.1771H7.12139Z" fill="#1C3182"/>
<path d="M22.9922 16.3338C24.0831 17.4071 25.1743 18.4805 26.2653 19.5539C26.8417 20.1207 27.4193 20.689 28.0473 21.1808C28.3859 21.4461 28.7627 21.6966 29.1747 21.697C29.5868 21.6972 30.0247 21.3496 30.0214 20.8841C30.0191 20.5209 29.7682 20.2291 29.5333 19.9812C27.796 18.1489 25.9804 16.4116 24.0947 14.7775C23.7491 15.2838 23.4035 15.7902 22.9922 16.3338Z" fill="#FDFDFF"/>
<path d="M23.1992 16.3184L26.3748 19.4426C26.9387 19.9973 27.5217 20.5708 28.1435 21.0578C28.4636 21.3086 28.8101 21.5407 29.1749 21.5409H29.1751C29.3538 21.5409 29.5417 21.4591 29.6776 21.3221C29.7998 21.1992 29.8664 21.0442 29.8652 20.8853C29.8632 20.5814 29.644 20.3252 29.4199 20.0887C27.7335 18.3102 25.9528 16.6023 24.1246 15.0107C23.8371 15.4318 23.5384 15.865 23.1993 16.3184L23.1992 16.3184ZM29.1751 21.8534H29.1747C28.7152 21.853 28.3149 21.5892 27.9508 21.304C27.3151 20.8059 26.7256 20.2261 26.1557 19.6654L22.8826 16.4454C22.8267 16.3902 22.8202 16.3022 22.8675 16.2395C23.2761 15.6996 23.6262 15.1866 23.9647 14.6907C23.9899 14.6539 24.03 14.6291 24.0742 14.6233C24.1182 14.6174 24.1633 14.6304 24.197 14.6594C26.079 16.2905 27.9127 18.0448 29.6467 19.8737C29.9022 20.1431 30.175 20.4656 30.1777 20.8832C30.1795 21.126 30.0805 21.36 29.8995 21.5424C29.7058 21.7372 29.4351 21.8535 29.1751 21.8535V21.8534Z" fill="#1C3182"/>
<path d="M18.7346 16.4362C15.8804 16.4362 13.5666 14.1224 13.5666 11.2683C13.5666 8.41398 15.8804 6.10032 18.7346 6.10032C21.5887 6.10032 23.9025 8.414 23.9025 11.2683C23.9025 14.1224 21.5887 16.4362 18.7346 16.4362ZM18.7346 16.4362C15.8804 16.4362 13.5666 14.1224 13.5666 11.2683C13.5666 8.41398 15.8804 6.10032 18.7346 6.10032C21.5887 6.10032 23.9025 8.414 23.9025 11.2683C23.9025 14.1224 21.5887 16.4362 18.7346 16.4362ZM18.7346 4.46387C14.9766 4.46387 11.9302 7.51029 11.9302 11.2683C11.9302 15.0262 14.9766 18.0726 18.7346 18.0726C22.4925 18.0726 25.5389 15.0262 25.5389 11.2683C25.5389 7.51029 22.4925 4.46387 18.7346 4.46387Z" fill="#FDFDFF"/>
<path d="M13.7224 11.2682C13.7224 14.0316 15.9707 16.2799 18.7341 16.2799C21.4975 16.2799 23.7458 14.0316 23.7458 11.2682C23.7458 8.50461 21.4975 6.25658 18.7341 6.25658C15.9707 6.25658 13.7224 8.50461 13.7224 11.2682ZM18.7341 16.5924C15.7983 16.5924 13.4099 14.204 13.4099 11.2682C13.4099 8.33237 15.7983 5.944 18.7341 5.944C21.6699 5.944 24.0583 8.33237 24.0583 11.2682C24.0583 14.204 21.6699 16.5924 18.7341 16.5924ZM18.7341 4.62008C15.0683 4.62008 12.086 7.60242 12.086 11.2682C12.086 14.934 15.0683 17.9163 18.7341 17.9163C22.3999 17.9163 25.3822 14.934 25.3822 11.2682C25.3822 7.6024 22.3999 4.62008 18.7341 4.62008ZM18.7341 18.2289C14.8961 18.2289 11.7734 15.1062 11.7734 11.2682C11.7734 7.42999 14.896 4.30774 18.7341 4.30774C22.5721 4.30774 25.6948 7.42999 25.6948 11.2682C25.6948 15.1062 22.5721 18.2289 18.7341 18.2289Z" fill="#1C3182"/>
<path d="M23.8695 16.5288L23.8551 16.5268C23.8277 16.5189 23.8115 16.49 23.8194 16.4623L23.9392 16.0434C23.9469 16.0159 23.9755 15.9992 24.0035 16.0077C24.0312 16.0156 24.0472 16.0444 24.0392 16.0722L23.9196 16.491C23.913 16.5139 23.8922 16.5288 23.8696 16.5288H23.8695Z" fill="#1C3182"/>
<path d="M24.4418 17.2626L24.4351 17.2622C24.4064 17.2584 24.3865 17.2322 24.3901 17.2036C24.454 16.7149 24.5311 16.2202 24.6196 15.7337C24.6246 15.7053 24.6523 15.6869 24.6801 15.6918C24.7085 15.697 24.7272 15.724 24.722 15.7524C24.6339 16.2371 24.5571 16.73 24.4935 17.2171C24.4899 17.2434 24.4677 17.2625 24.4418 17.2625L24.4418 17.2626Z" fill="#1C3182"/>
<path d="M25.1854 17.9746C25.1566 17.9746 25.1333 17.9514 25.1333 17.9225C25.1333 17.6775 25.171 17.2664 25.2042 16.9039C25.2245 16.6828 25.2421 16.4918 25.2481 16.3717C25.2495 16.343 25.2721 16.32 25.3026 16.3223C25.3314 16.3237 25.3535 16.3482 25.352 16.3771C25.346 16.4993 25.3284 16.6911 25.308 16.9133C25.275 17.2738 25.2375 17.6822 25.2375 17.9225C25.2375 17.9514 25.2141 17.9746 25.1854 17.9746L25.1854 17.9746Z" fill="#1C3182"/>
<path d="M25.9464 18.6761C25.918 18.6761 25.8949 18.6534 25.8943 18.6252L25.855 16.8875C25.8545 16.8585 25.8773 16.8348 25.9058 16.8341C25.938 16.8345 25.9586 16.8562 25.9591 16.885L25.9985 18.6228C25.9991 18.6517 25.9762 18.6754 25.9477 18.6761H25.9464Z" fill="#1C3182"/>
<path d="M26.6705 19.4449C26.6427 19.4449 26.6195 19.4228 26.6184 19.3948L26.5503 17.5748C26.5493 17.5462 26.5717 17.5219 26.6004 17.5209C26.631 17.5212 26.6532 17.5424 26.6545 17.571L26.7226 19.3909C26.7236 19.4196 26.7012 19.4438 26.6725 19.4449H26.6705H26.6705Z" fill="#1C3182"/>
<path d="M27.4076 20.0928C27.3801 20.0928 27.3571 20.0714 27.3557 20.0436L27.2638 18.3436C27.2621 18.3148 27.2842 18.2901 27.3128 18.2887C27.3465 18.2857 27.366 18.3092 27.3677 18.3378L27.4597 20.0381C27.4613 20.0667 27.4392 20.0912 27.4105 20.0928H27.4076Z" fill="#1C3182"/>
<path d="M28.1371 20.6916C28.1104 20.6916 28.0873 20.6709 28.0854 20.6435L27.9577 18.9885C27.9555 18.9599 27.9769 18.9347 28.0056 18.9326C28.0315 18.9285 28.0594 18.9518 28.0615 18.9806L28.1892 20.6355C28.1914 20.6643 28.17 20.6893 28.1412 20.6914L28.1371 20.6916Z" fill="#1C3182"/>
<path d="M28.828 21.2297C28.8018 21.2297 28.7792 21.2097 28.7765 21.1828L28.6273 19.7314C28.6242 19.7028 28.645 19.6773 28.6738 19.6743C28.7004 19.6711 28.7279 19.692 28.7307 19.7208L28.88 21.1724C28.8831 21.201 28.8622 21.2264 28.8335 21.2294L28.8281 21.2297L28.828 21.2297Z" fill="#1C3182"/>
<path d="M29.5045 21.1525C29.4795 21.1525 29.4574 21.1344 29.4532 21.1088L29.3484 20.4603C29.3437 20.4317 29.3631 20.4051 29.3915 20.4005C29.4204 20.3953 29.4466 20.4152 29.4512 20.4436L29.556 21.0921C29.5607 21.1205 29.5413 21.1473 29.5129 21.1518L29.5045 21.1525H29.5045Z" fill="#1C3182"/>
<path d="M18.5635 16.4476C18.369 16.4476 18.1748 16.432 17.983 16.3971L17.9778 16.396C17.666 16.3593 17.352 16.3227 17.0501 16.2351C16.4974 16.0554 15.9988 15.7463 15.53 15.4081C15.3328 15.2457 15.0204 15.0708 14.5667 14.5777C14.2567 14.1882 14 13.7544 13.8078 13.2872C13.7305 13.0656 13.6726 12.8475 13.6191 12.6357C13.5302 11.9358 13.5172 11.2304 13.6083 10.5272C13.6155 10.5267 13.6229 10.5265 13.6302 10.5265C13.678 10.5265 13.7256 10.5376 13.769 10.5572C13.77 10.5605 13.7708 10.5635 13.7718 10.5666C13.7396 10.7958 13.7229 11.0301 13.7229 11.2682C13.7229 14.0315 15.9712 16.2798 18.7346 16.2798C20.8637 16.2798 22.6872 14.9451 23.4119 13.0683C23.4518 13.0115 23.4956 12.9587 23.5485 12.9141C23.5879 12.8904 23.632 12.8795 23.6758 12.8795C23.7099 12.8795 23.7439 12.8861 23.7756 12.8984C23.6959 13.1236 23.6147 13.3483 23.5335 13.573C23.3762 13.8994 23.1865 14.2074 22.9686 14.4928C22.6311 14.8109 22.1682 15.1748 21.716 15.4563C21.623 15.5263 21.554 15.5743 21.3551 15.6969C20.8653 15.9558 20.3295 16.1199 19.793 16.2518C19.5344 16.3213 19.277 16.3996 19.0088 16.4219C18.861 16.4384 18.7123 16.4476 18.5635 16.4476H18.5635Z" fill="#1C3182"/>
<path d="M19.6162 18.2289C19.6455 18.2244 19.661 18.2227 19.6631 18.2227C19.6635 18.2227 19.6635 18.2227 19.6631 18.2227L19.6324 18.2269L19.6162 18.2289L19.6162 18.2289Z" fill="#FDFDFF"/>
<path d="M16.9284 18.7285C16.6554 18.6684 16.3871 18.5917 16.127 18.4897H16.7722C16.8583 18.4897 16.9284 18.5598 16.9284 18.6461V18.7285Z" fill="#1C3182"/>
<path d="M23.5686 16.9473C23.4869 16.9473 23.4088 16.9236 23.341 16.8832C23.3426 16.8891 23.344 16.8949 23.3455 16.9008L23.1191 16.6782C23.1317 16.6804 23.1445 16.6836 23.1572 16.6881C23.1511 16.6766 23.1456 16.6648 23.1405 16.6527C23.2127 16.5935 23.2841 16.5326 23.3539 16.4706L23.7816 16.8913C23.7104 16.9301 23.6382 16.9473 23.5686 16.9473H23.5686ZM24.9308 15.7229C24.7625 15.572 24.5936 15.422 24.4245 15.2731C24.4606 15.2217 24.4961 15.17 24.531 15.1178C24.5344 15.1176 24.5378 15.1176 24.5412 15.1176C24.578 15.1176 24.6168 15.1229 24.6576 15.1347C24.9067 15.2004 25.0405 15.4944 24.9308 15.7229Z" fill="#1C3182"/>
<path d="M20.9304 17.8738C20.9346 17.8722 20.9385 17.8706 20.9427 17.869C21.1388 17.8039 21.9999 17.3388 22.4254 17.0736C22.4662 17.054 22.6779 16.9046 22.7559 16.8498C22.8523 16.7674 22.9583 16.6747 23.0786 16.6747C23.0893 16.6747 23.1 16.6754 23.1108 16.6769C22.4685 17.1978 21.7314 17.6069 20.9304 17.8738L20.9304 17.8738ZM15.8714 17.6127C14.2079 16.8592 12.8915 15.4702 12.2334 13.7572C12.3489 13.7701 12.4638 13.8467 12.5237 14.0062C12.9925 14.8415 13.2633 15.4523 13.886 16.0292C14.3331 16.4577 14.5729 16.5707 14.9808 16.9172C15.3806 17.2322 15.5595 17.4255 15.8714 17.6127L15.8714 17.6127ZM23.1404 16.6528C23.0819 16.5159 23.0883 16.3526 23.2045 16.2097C23.2511 16.129 23.3389 16.0926 23.4127 16.0414L23.4174 16.0376C23.7901 15.7003 23.854 15.7226 24.0801 15.4587L24.0976 15.438C24.2032 15.2746 24.3401 15.123 24.5308 15.1178C24.496 15.17 24.4604 15.2218 24.4243 15.2731C24.1141 15.7125 23.7547 16.1141 23.3538 16.4707C23.2839 16.5326 23.2126 16.5935 23.1404 16.6528H23.1404Z" fill="#1C3182"/>
<path d="M23.8695 16.5288L23.8551 16.5268C23.8277 16.5189 23.8115 16.49 23.8194 16.4624L23.9392 16.0435C23.9457 16.0209 23.966 16.0056 23.9888 16.0056C23.9936 16.0056 23.9987 16.0063 24.0035 16.0077C24.0312 16.0156 24.0472 16.0444 24.0392 16.0723L23.9196 16.4911C23.913 16.5139 23.8922 16.5288 23.8696 16.5288L23.8695 16.5288Z" fill="#1C3182"/>
<path d="M24.5312 16.2452C24.5592 16.0742 24.5887 15.9034 24.6196 15.7337C24.6241 15.7083 24.6467 15.6909 24.6713 15.6909C24.6742 15.6909 24.6773 15.6913 24.6801 15.6918C24.7085 15.697 24.7272 15.724 24.722 15.7524C24.7013 15.8661 24.6814 15.9801 24.662 16.0945C24.6259 16.1365 24.5889 16.1779 24.5515 16.2188C24.5447 16.2276 24.5381 16.2366 24.5312 16.2452V16.2452Z" fill="#1C3182"/>
<path d="M19.7603 18.2089C19.7707 18.2075 19.7802 18.206 19.7883 18.2053C19.7789 18.2064 19.7696 18.2077 19.7603 18.2089Z" fill="#FDFDFF"/>
<path d="M17.1378 10.0664L16.3281 10.8218L18.5352 13.2746L20.9755 9.72212L20.0715 9.0033L18.3675 11.4048L17.1378 10.0664Z" fill="#FDFDFF"/>
<path d="M16.5469 10.8313L18.5187 13.0226L20.7643 9.75359L20.1035 9.22826L18.495 11.4952C18.4675 11.5336 18.4244 11.5577 18.3773 11.5607C18.329 11.5634 18.2843 11.5453 18.2525 11.5105L17.1294 10.2879L16.5469 10.8313L16.5469 10.8313ZM18.5352 13.4307C18.491 13.4307 18.4488 13.412 18.4191 13.379L16.2119 10.9262C16.155 10.863 16.1593 10.7656 16.2214 10.7074L17.0313 9.95212C17.0619 9.92371 17.103 9.90758 17.1439 9.91007C17.1857 9.91186 17.2248 9.92983 17.253 9.96053L18.3519 11.1568L19.944 8.91284C19.9688 8.87782 20.0071 8.85465 20.0496 8.84854C20.0922 8.843 20.1351 8.8543 20.1687 8.88103L21.0727 9.59969C21.137 9.6507 21.1509 9.74286 21.1043 9.81037L18.6641 13.363C18.6372 13.4025 18.5933 13.4273 18.5455 13.4305L18.5353 13.4307H18.5352Z" fill="#1C3182"/>
<path d="M4.87863 25.6241C4.61684 25.6241 4.50248 25.3123 4.62853 25.1301C4.6519 25.1439 4.67909 25.152 4.70817 25.152H7.54682C7.63322 25.152 7.70328 25.082 7.70328 24.9957V24.9919C7.79054 25.0415 7.85323 25.1342 7.85037 25.2404C7.85392 25.3977 7.7128 25.5274 7.56153 25.5274C7.55342 25.5274 7.54538 25.527 7.5373 25.5263C7.51917 25.5265 7.50099 25.5279 7.48267 25.5295H7.48344C7.39128 25.5424 7.29841 25.5493 7.20554 25.5539C7.18471 25.5554 7.16389 25.5568 7.14266 25.557C7.04658 25.5603 6.9505 25.5619 6.85422 25.5619C6.85243 25.5619 6.85045 25.5619 6.84861 25.5619C6.19431 25.591 5.54051 25.6116 4.88595 25.6242C4.88345 25.6242 4.88096 25.6242 4.87861 25.6242L4.87863 25.6241Z" fill="#FDFDFF"/>
<path d="M9.43215 25.618C9.14009 25.618 9.02136 25.2617 9.18608 25.0742C9.21321 25.1208 9.26347 25.152 9.32115 25.152H12.16C12.2052 25.152 12.2462 25.1326 12.2748 25.1019C12.3743 25.2924 12.28 25.5794 11.9917 25.5863C11.7654 25.5958 11.5389 25.5985 11.3124 25.5985C11.1527 25.5985 10.9932 25.5972 10.8336 25.5959C10.6737 25.5946 10.5137 25.5931 10.3538 25.5931C10.0477 25.5931 9.742 25.5981 9.4365 25.6181C9.43503 25.6181 9.4336 25.6181 9.43218 25.6181L9.43215 25.618Z" fill="#FDFDFF"/>
<path d="M12.1599 25.152H9.32111C9.26343 25.152 9.21316 25.1208 9.18604 25.0742C9.21708 25.0391 9.25807 25.0098 9.30995 24.99C9.44737 24.9538 9.59048 24.9467 9.73494 24.9467C9.78256 24.9467 9.8301 24.9476 9.87772 24.9483C9.92552 24.949 9.97312 24.9499 10.0207 24.9499C10.1019 24.9499 10.1827 24.9476 10.2623 24.9393C10.6475 24.9325 11.0327 24.9374 11.4178 24.9226C11.5598 24.9271 11.7015 24.9417 11.8436 24.9417C11.8928 24.9417 11.9423 24.9399 11.9917 24.9354C12.1319 24.9391 12.2262 25.0092 12.2747 25.1019C12.2462 25.1326 12.2052 25.152 12.1599 25.152V25.152Z" fill="#1C3182"/>
<path d="M14.3814 25.5716C14.262 25.5716 14.1423 25.57 14.0231 25.5661C14.0197 25.5662 14.0163 25.5662 14.0128 25.5662C13.7678 25.5662 13.6033 25.2711 13.7341 25.0624C13.7461 25.0405 13.7608 25.021 13.7774 25.0035C13.7815 25.0861 13.8498 25.1521 13.9335 25.1521H16.7723C16.8461 25.1521 16.9079 25.1007 16.9243 25.0318C17.0129 25.1882 16.9501 25.4206 16.7706 25.4817C16.7227 25.5074 16.6695 25.5106 16.6156 25.5106C16.6061 25.5106 16.5968 25.5104 16.5872 25.5104C16.5778 25.5102 16.568 25.51 16.5585 25.51C16.5355 25.51 16.5125 25.5107 16.4902 25.5134C16.2605 25.528 16.0304 25.5357 15.8003 25.5404C15.3278 25.5463 14.8541 25.5716 14.3814 25.5716H14.3814Z" fill="#FDFDFF"/>
</svg>
