<svg width="32" height="32" viewBox="0 0 32 32" fill="none" xmlns="http://www.w3.org/2000/svg">
<path d="M15.4175 30.8221C15.8635 31.0603 16.4232 31.0588 16.8692 30.8206C29.023 24.2917 29.8861 11.5357 29.8755 7.90873C29.8743 7.61722 29.7882 7.33237 29.6276 7.08907C29.467 6.84578 29.239 6.65459 28.9714 6.53893L16.76 1.12952C16.5657 1.04385 16.3556 0.99974 16.1432 1C15.9308 1.00026 15.7209 1.04489 15.5267 1.13103L3.4003 6.54045C3.13665 6.65617 2.91182 6.84524 2.7526 7.08515C2.59339 7.32505 2.50649 7.60566 2.50227 7.89356C2.45069 11.5024 3.17731 24.2856 15.4175 30.8221ZM11.1488 13.4365L14.6272 16.9148L21.1394 10.4026L23.2844 12.5475L14.6272 21.2047L9.00388 15.5814L11.1488 13.4365Z" fill="#FDFDFF"/>
</svg>
