<svg width="32" height="32" viewBox="0 0 32 32" fill="none" xmlns="http://www.w3.org/2000/svg">
<path d="M15.4175 30.8221C15.8635 31.0603 16.4232 31.0588 16.8692 30.8206C29.023 24.2917 29.8861 11.5357 29.8755 7.90873C29.8743 7.61722 29.7882 7.33237 29.6276 7.08907C29.467 6.84578 29.239 6.65459 28.9714 6.53893L16.76 1.12952C16.5657 1.04385 16.3556 0.99974 16.1432 1C15.9308 1.00026 15.7209 1.04489 15.5267 1.13103L3.4003 6.54045C3.13665 6.65617 2.91182 6.84524 2.7526 7.08515C2.59339 7.32505 2.50649 7.60566 2.50227 7.89356C2.45069 11.5024 3.17731 24.2856 15.4175 30.8221ZM11.1488 13.4365L14.6272 16.9148L21.1394 10.4026L23.2844 12.5475L14.6272 21.2047L9.00388 15.5814L11.1488 13.4365Z" fill="#FDFDFF"/>
<path d="M11.1488 13.4365L14.6272 16.9148L21.1394 10.4026L23.2844 12.5475L14.6272 21.2047L9.00388 15.5814L11.1488 13.4365Z" fill="#FDFDFF"/>
<path d="M19.9701 12.6106H19.5672C19.5224 12.2566 19.3881 11.9469 19.2537 11.6372C19.0299 11.1947 18.7164 10.7965 18.3134 10.531C17.7761 10.177 17.194 10 16.5224 10V10.0442C15.8955 10.0442 15.2687 10.2212 14.7313 10.5752C14.3284 10.8407 14.0149 11.2389 13.791 11.6814C13.6567 11.9911 13.5224 12.3451 13.4776 12.6549H13.0746C12.4925 12.6549 12 13.1416 12 13.7168V18.9381C12 19.5133 12.4925 20 13.0746 20H19.9254C20.5075 20 21 19.5133 21 18.9381V13.6283C21 13.0531 20.5522 12.6106 19.9701 12.6106ZM14.7761 12.0354C14.9104 11.7699 15.0896 11.5044 15.3582 11.3274C15.7164 11.1062 16.1194 11.0177 16.5224 11.0177V10.9735C16.9254 10.9735 17.3284 11.0619 17.6866 11.2832C17.9552 11.4602 18.1343 11.7257 18.2687 11.9912C18.3582 12.1681 18.403 12.3451 18.4478 12.5221H14.597C14.6418 12.3894 14.6866 12.2124 14.7761 12.0354ZM19.9701 18.8496H13.1194V13.6283H14.0149H19.1194H20.0149V18.8496H19.9701Z" fill="#1C3182"/>
<path d="M19.9701 18.8496H13.1194V13.6283H14.0149H19.1194H20.0149V18.8496H19.9701Z" fill="#1C3182"/>
</svg>
