<svg xmlns="http://www.w3.org/2000/svg" width="24" height="24" fill="none"><path fill="#25272B" d="M14.968 21.6a3.55 3.55 0 0 1-2.368-.899V15.6H15a1.8 1.8 0 0 0 1.8-1.8v-.702a1.8 1.8 0 1 0-1.2 0v.702a.6.6 0 0 1-.6.6h-2.4V2.954a2.907 2.907 0 0 1 4.56 1.784l.15.752.487.097A3.24 3.24 0 0 1 20.4 8.762V9c0 .871-.372 1.656-.966 2.204a3.898 3.898 0 0 1-.924 7.306l-.044.222a3.564 3.564 0 0 1-3.498 2.868M9.692 2.4a2.9 2.9 0 0 1 1.708.554V7.2h-.702a1.8 1.8 0 1 0 0 1.2h.702v12.301a3.569 3.569 0 0 1-5.866-1.968l-.044-.223A3.897 3.897 0 0 1 3.484 12H7.8a.6.6 0 0 1 .6.6v.702a1.8 1.8 0 1 0 1.2 0V12.6a1.8 1.8 0 0 0-1.8-1.8H4.2A3 3 0 0 1 3.6 9v-.238a3.24 3.24 0 0 1 2.603-3.175l.487-.096.15-.753A2.904 2.904 0 0 1 9.692 2.4M9 7.2a.6.6 0 1 1 0 1.2.6.6 0 0 1 0-1.2m0 8.4a.6.6 0 1 0 0-1.2.6.6 0 0 0 0 1.2m7.2-3.6a.6.6 0 1 0 0-1.2.6.6 0 0 0 0 1.2"/></svg>