<svg xmlns="http://www.w3.org/2000/svg" width="62" height="68" fill="none"><path stroke="#FDFDFF" stroke-linecap="round" stroke-linejoin="round" stroke-width="3" d="M15.81 21.478h30.38M15.12 52.087H7.201a2.77 2.77 0 0 1-2.74-2.438L2 29.826m0 0h58m-58 0 4.83-12.163a2.76 2.76 0 0 1 2.564-1.75h9.177M60 29.826 57.54 49.65a2.77 2.77 0 0 1-2.74 2.438h-9.3M60 29.827l-4.83-12.164a2.76 2.76 0 0 0-2.564-1.75H43.43m-13.81 33.391h6.905m-15.19 5.566h16.57m-19.333 5.565h20.715m4.143-38.957H18.57V2h19.334l5.524 5.565zM17.19 43.74H43.43L48.952 66H11.667zm34.524-7.652c.382 0 .69.311.69.696s-.308.695-.69.695a.693.693 0 0 1-.69-.695c0-.385.309-.696.69-.696m0 6.956c.382 0 .69.312.69.696s-.308.696-.69.696a.693.693 0 0 1-.69-.696c0-.384.309-.695.69-.695"/></svg>