<svg xmlns="http://www.w3.org/2000/svg" width="39" height="40" fill="none"><path fill="#1C3182" fill-rule="evenodd" d="M18.258 30.73 5.763 27.373l4.978-1.31a1.26 1.26 0 0 0 .896-1.528 1.26 1.26 0 0 0-1.527-.907L.934 26.096c-.588.153-.981.714-.93 1.326v7.557c.003.59.41 1.1.98 1.226L18.258 40zM39 27.322a1.274 1.274 0 0 0-.93-1.226l-9.11-2.418a1.26 1.26 0 0 0-1.526.906 1.26 1.26 0 0 0 .896 1.529l4.613 1.225-12.196 3.359v9.286l17.274-3.795c.57-.126.977-.636.979-1.226zM26.903 15.668a14.8 14.8 0 0 1-1.875 4.265c.61.371 1.168.823 1.66 1.343.302.313.758.416 1.163.263s.684-.532.712-.968a6.3 6.3 0 0 0-1.66-4.904m-14.802 0a6.3 6.3 0 0 0-1.659 4.903c.028.436.306.816.711.968.406.153.862.05 1.164-.263a8 8 0 0 1 1.66-1.343 14.8 14.8 0 0 1-1.876-4.265M19.502 0s-5.808 2.939-5.808 8.816c0 3.241.963 11.755 5.808 11.755 4.846 0 5.808-8.514 5.808-11.755C25.31 2.94 19.502 0 19.502 0m0 10.915a2.29 2.29 0 0 1-2.127-1.419 2.34 2.34 0 0 1 .486-2.53 2.27 2.27 0 0 1 2.497-.51 2.32 2.32 0 0 1 1.418 2.142 2.32 2.32 0 0 1-.66 1.637 2.26 2.26 0 0 1-1.614.68m0 11.47c-1.283 0-2.323 1.052-2.323 2.35 0 1.31 1.046 4.434 2.323 4.434 1.278 0 2.323-3.124 2.323-4.434 0-1.298-1.04-2.35-2.323-2.35" clip-rule="evenodd"/></svg>