<svg xmlns="http://www.w3.org/2000/svg" width="40" height="40" fill="none"><path fill="#1C3182" fill-rule="evenodd" d="M37.094 10.633a2.85 2.85 0 0 0-2.034.85l-.783.784h-2.35L30.093 10V7.983q.17-.148.3-.333l1.517-1.9h2.35l.784.8a2.85 2.85 0 0 0 2.033.85c.766.005 1.5-.302 2.034-.85a2.85 2.85 0 0 0 0-4.067L37.444.817A2.82 2.82 0 0 0 35.461 0h-4.9a2.9 2.9 0 0 0-2.251 1.1l-3.334 4.45H15.21A8.117 8.117 0 1 0 4.975 16.983l5.667 15.683 1.25-4.8a3.33 3.33 0 0 1 3.217-2.483h4.367L14.559 14.35c.438-.571.797-1.2 1.067-1.867h9.25v.284l3.434 4.183a2.88 2.88 0 0 0 2.25 1.083h4.9a2.88 2.88 0 0 0 2.034-.85l1.667-1.666a2.883 2.883 0 0 0-2.034-4.917zm-29.002 2a3.184 3.184 0 1 1-.034-6.367 3.184 3.184 0 0 1 .034 6.367M27.01 38.967l-2.767-10.55a.8.8 0 0 0-.783-.617h-8.334a.82.82 0 0 0-.8.616l-2.684 10.55a.85.85 0 0 0 .15.717.8.8 0 0 0 .65.317H26.26a.8.8 0 0 0 .783-1.033zm-7.7-2.3a2.467 2.467 0 1 1 2.466-2.45 2.45 2.45 0 0 1-2.467 2.45" clip-rule="evenodd"/></svg>