<svg xmlns="http://www.w3.org/2000/svg" width="36" height="36" fill="none"><path fill="#1C3182" fill-rule="evenodd" d="M17.096.303a1.5 1.5 0 0 1 1.808 0L34.82 12.33a1.4 1.4 0 0 1 .16.138C35.369 12.86 36 13.664 36 14.7v18.333C36 34.832 34.506 36 33.039 36H2.959C1.155 36 0 34.49 0 33.033V14.7c0-1.035.63-1.84 1.02-2.232q.075-.074.16-.138zM19.125 7.5a1.125 1.125 0 0 0-2.25 0v2.25a1.125 1.125 0 0 0 2.25 0zm-13.38 6.248c.278-.555.952-.78 1.508-.504l1.5.75a1.125 1.125 0 1 1-1.006 2.013l-1.5-.75a1.125 1.125 0 0 1-.503-1.51zm3.007 12.759a1.125 1.125 0 1 0-1.005-2.013l-1.5.75a1.125 1.125 0 1 0 1.006 2.013zm21.504-12.76a1.125 1.125 0 0 1-.503 1.51l-1.5.75a1.125 1.125 0 1 1-1.006-2.013l1.5-.75a1.125 1.125 0 0 1 1.51.504m-2.003 10.747a1.125 1.125 0 1 0-1.006 2.013l1.5.75a1.125 1.125 0 1 0 1.006-2.013zM21 28.34a8.6 8.6 0 0 1-3 .535 8.6 8.6 0 0 1-3-.535v.91a3 3 0 0 0 6 0zM18 27a6.75 6.75 0 1 0 0-13.5A6.75 6.75 0 0 0 18 27" clip-rule="evenodd"/></svg>