<svg xmlns="http://www.w3.org/2000/svg" width="48" height="48" fill="none"><path stroke="#25272B" stroke-linecap="round" stroke-linejoin="round" stroke-width="2" d="M24 16c9.941 0 18-2.686 18-6s-8.059-6-18-6S6 6.686 6 10s8.059 6 18 6M6 24c-.003 1.118.932 2.215 2.699 3.165S20 30 23 30M42 18.6V10"/><path stroke="#25272B" stroke-linecap="round" stroke-linejoin="round" stroke-width="2" d="M6 10v28c-.001 1.297 1.26 2.56 3.592 3.598C11.925 42.637 20.265 43.635 24 44M42 32H30a2 2 0 0 0-2 2v6a2 2 0 0 0 2 2h12a2 2 0 0 0 2-2v-6a2 2 0 0 0-2-2M40 32v-4a4 4 0 1 0-8 0v4"/></svg>