<svg xmlns="http://www.w3.org/2000/svg" width="48" height="48" fill="none"><path stroke="#25272B" stroke-linecap="round" stroke-linejoin="round" stroke-width="2" d="M24 16c9.941 0 18-2.686 18-6s-8.059-6-18-6S6 6.686 6 10s8.059 6 18 6"/><path stroke="#25272B" stroke-linecap="round" stroke-linejoin="round" stroke-width="2" d="M6 10v28c-.011.962.671 1.91 1.99 2.766 1.32.855 3.236 1.593 5.59 2.15 2.352.556 5.072.916 7.93 1.05 2.857.133 5.77.035 8.49-.286M42 10v6M42 24l-6 10h8l-6 10"/><path stroke="#25272B" stroke-linecap="round" stroke-linejoin="round" stroke-width="2" d="M6 24c.003.935.661 1.857 1.923 2.692 1.261.835 3.091 1.56 5.343 2.118s4.863.932 7.626 1.094c2.764.161 5.602.105 8.288-.164"/></svg>