<svg xmlns="http://www.w3.org/2000/svg" width="68" height="68" fill="none"><path stroke="#FDFDFF" stroke-linecap="round" stroke-linejoin="round" stroke-width="3" d="M21.478 54.867h25.044M21.478 46.52h25.044m-30.609.003H7.565A5.58 5.58 0 0 1 2 40.958V24.263a5.58 5.58 0 0 1 5.565-5.565h52.87A5.58 5.58 0 0 1 66 24.263v16.695a5.58 5.58 0 0 1-5.565 5.565h-8.348m-36.174-33.39V2.003h26.674c.738 0 1.446.293 1.967.815l6.718 6.717c.522.522.815 1.23.815 1.967v1.63M40.957 2v11.13h11.13m0 50.088A2.783 2.783 0 0 1 49.304 66H18.696a2.783 2.783 0 0 1-2.783-2.782V38.175h36.174zM7.565 27.042a2.783 2.783 0 1 0 5.565 0 2.783 2.783 0 0 0-5.565 0"/></svg>