<svg xmlns="http://www.w3.org/2000/svg" width="68" height="68" fill="none"><path stroke="#FDFDFF" stroke-linecap="round" stroke-linejoin="round" stroke-width="3" d="M66 54.87C66 62.555 59.773 66 52.087 66H15.913C8.227 66 2 62.555 2 54.87m64 0H2m64 0L54.87 27.044M2 54.87l11.13-27.826m0 0h41.74m-41.74 0L7.565 7.565M54.87 27.044l5.565-19.479m0 0H7.565m52.87 0A5.565 5.565 0 0 0 54.87 2H13.13a5.565 5.565 0 0 0-5.565 5.565m41.74 25.044h-30.61L13.13 49.304h41.74zm-3.479 27.13a.696.696 0 1 1 0 1.391.696.696 0 0 1 0-1.39m8.348 0a.696.696 0 1 1 0 1.392.696.696 0 0 1 0-1.392"/></svg>